<mxfile host="app.diagrams.net" agent="Mozilla/5.0 (Windows NT 10.0; Win64; x64) AppleWebKit/537.36 (KHTML, like Gecko) Chrome/129.0.0.0 Safari/537.36 Edg/129.0.0.0" version="24.7.17">
  <diagram name="Page-1" id="O9D5SlDPZ0m7oBZP_ZRW">
    <mxGraphModel grid="1" page="1" gridSize="10" guides="1" tooltips="1" connect="1" arrows="1" fold="1" pageScale="1" pageWidth="827" pageHeight="1169" math="0" shadow="0">
      <root>
        <mxCell id="0" />
        <mxCell id="1" parent="0" />
        <mxCell id="TGZ9uctQvsi_4eYCHR30-4" value="" style="edgeStyle=orthogonalEdgeStyle;rounded=0;orthogonalLoop=1;jettySize=auto;html=1;" edge="1" parent="1" source="TGZ9uctQvsi_4eYCHR30-1" target="TGZ9uctQvsi_4eYCHR30-3">
          <mxGeometry relative="1" as="geometry" />
        </mxCell>
        <mxCell id="TGZ9uctQvsi_4eYCHR30-1" value="Start" style="ellipse;whiteSpace=wrap;html=1;" vertex="1" parent="1">
          <mxGeometry x="230" y="10" width="120" height="80" as="geometry" />
        </mxCell>
        <mxCell id="TGZ9uctQvsi_4eYCHR30-24" style="edgeStyle=orthogonalEdgeStyle;rounded=0;orthogonalLoop=1;jettySize=auto;html=1;exitX=0.5;exitY=1;exitDx=0;exitDy=0;entryX=0.5;entryY=0;entryDx=0;entryDy=0;" edge="1" parent="1" source="TGZ9uctQvsi_4eYCHR30-3" target="TGZ9uctQvsi_4eYCHR30-22">
          <mxGeometry relative="1" as="geometry" />
        </mxCell>
        <mxCell id="TGZ9uctQvsi_4eYCHR30-3" value="Draw a card from deck" style="whiteSpace=wrap;html=1;" vertex="1" parent="1">
          <mxGeometry x="230" y="150" width="120" height="60" as="geometry" />
        </mxCell>
        <mxCell id="TGZ9uctQvsi_4eYCHR30-28" style="edgeStyle=orthogonalEdgeStyle;rounded=0;orthogonalLoop=1;jettySize=auto;html=1;exitX=1;exitY=0.5;exitDx=0;exitDy=0;entryX=0;entryY=0.5;entryDx=0;entryDy=0;" edge="1" parent="1" source="TGZ9uctQvsi_4eYCHR30-22" target="TGZ9uctQvsi_4eYCHR30-27">
          <mxGeometry relative="1" as="geometry" />
        </mxCell>
        <mxCell id="TGZ9uctQvsi_4eYCHR30-22" value="if suit is higher" style="rhombus;whiteSpace=wrap;html=1;" vertex="1" parent="1">
          <mxGeometry x="250" y="260" width="80" height="80" as="geometry" />
        </mxCell>
        <mxCell id="TGZ9uctQvsi_4eYCHR30-27" value="score +=1" style="rounded=0;whiteSpace=wrap;html=1;" vertex="1" parent="1">
          <mxGeometry x="430" y="270" width="120" height="60" as="geometry" />
        </mxCell>
      </root>
    </mxGraphModel>
  </diagram>
</mxfile>
